<mxfile host="app.diagrams.net" modified="2022-01-09T08:01:31.881Z" agent="5.0 (Windows NT 10.0; Win64; x64) AppleWebKit/537.36 (KHTML, like Gecko) Chrome/97.0.4692.71 Safari/537.36" etag="uOEFp-nwrjZERYbMGqyF" version="16.2.4" type="github">
  <diagram id="mnRflqDCTNff9czmcz0Y" name="Page-1">
    <mxGraphModel dx="1102" dy="882" grid="1" gridSize="10" guides="1" tooltips="1" connect="1" arrows="1" fold="1" page="1" pageScale="1" pageWidth="850" pageHeight="1100" math="0" shadow="0">
      <root>
        <mxCell id="0" />
        <mxCell id="1" parent="0" />
        <mxCell id="L4hd8jyMJO1TPTBA7iKi-6" value="" style="edgeStyle=orthogonalEdgeStyle;rounded=0;orthogonalLoop=1;jettySize=auto;html=1;exitX=0.5;exitY=1;exitDx=0;exitDy=0;" edge="1" parent="1" source="L4hd8jyMJO1TPTBA7iKi-16" target="L4hd8jyMJO1TPTBA7iKi-5">
          <mxGeometry relative="1" as="geometry">
            <mxPoint x="204" y="80" as="sourcePoint" />
          </mxGeometry>
        </mxCell>
        <mxCell id="L4hd8jyMJO1TPTBA7iKi-8" value="" style="edgeStyle=orthogonalEdgeStyle;rounded=0;orthogonalLoop=1;jettySize=auto;html=1;curved=1;exitX=0.5;exitY=1;exitDx=0;exitDy=0;entryX=0.5;entryY=0;entryDx=0;entryDy=0;strokeWidth=2;sketch=1;" edge="1" parent="1" source="L4hd8jyMJO1TPTBA7iKi-5" target="L4hd8jyMJO1TPTBA7iKi-9">
          <mxGeometry relative="1" as="geometry" />
        </mxCell>
        <mxCell id="L4hd8jyMJO1TPTBA7iKi-10" style="edgeStyle=orthogonalEdgeStyle;curved=1;rounded=0;orthogonalLoop=1;jettySize=auto;html=1;entryX=0.5;entryY=0;entryDx=0;entryDy=0;exitX=0.5;exitY=1;exitDx=0;exitDy=0;strokeWidth=2;" edge="1" parent="1" source="L4hd8jyMJO1TPTBA7iKi-5" target="L4hd8jyMJO1TPTBA7iKi-7">
          <mxGeometry relative="1" as="geometry" />
        </mxCell>
        <mxCell id="L4hd8jyMJO1TPTBA7iKi-41" style="edgeStyle=orthogonalEdgeStyle;curved=1;rounded=1;sketch=0;orthogonalLoop=1;jettySize=auto;html=1;entryX=0.5;entryY=0;entryDx=0;entryDy=0;exitX=0.5;exitY=1;exitDx=0;exitDy=0;" edge="1" parent="1" source="L4hd8jyMJO1TPTBA7iKi-5" target="L4hd8jyMJO1TPTBA7iKi-38">
          <mxGeometry relative="1" as="geometry" />
        </mxCell>
        <mxCell id="L4hd8jyMJO1TPTBA7iKi-5" value="C2" style="ellipse;whiteSpace=wrap;html=1;aspect=fixed;strokeWidth=2;sketch=1;shadow=0;" vertex="1" parent="1">
          <mxGeometry x="184" y="160" width="40" height="40" as="geometry" />
        </mxCell>
        <mxCell id="L4hd8jyMJO1TPTBA7iKi-12" value="" style="edgeStyle=orthogonalEdgeStyle;curved=1;rounded=0;orthogonalLoop=1;jettySize=auto;html=1;exitX=0.5;exitY=1;exitDx=0;exitDy=0;strokeWidth=2;" edge="1" parent="1" source="L4hd8jyMJO1TPTBA7iKi-7" target="L4hd8jyMJO1TPTBA7iKi-11">
          <mxGeometry relative="1" as="geometry" />
        </mxCell>
        <mxCell id="L4hd8jyMJO1TPTBA7iKi-7" value="C3" style="ellipse;whiteSpace=wrap;html=1;aspect=fixed;strokeWidth=2;sketch=1;" vertex="1" parent="1">
          <mxGeometry x="104" y="280" width="40" height="40" as="geometry" />
        </mxCell>
        <mxCell id="L4hd8jyMJO1TPTBA7iKi-13" style="edgeStyle=orthogonalEdgeStyle;curved=1;rounded=0;orthogonalLoop=1;jettySize=auto;html=1;exitX=0.5;exitY=1;exitDx=0;exitDy=0;strokeWidth=2;sketch=1;" edge="1" parent="1" source="L4hd8jyMJO1TPTBA7iKi-9">
          <mxGeometry relative="1" as="geometry">
            <mxPoint x="204" y="400" as="targetPoint" />
          </mxGeometry>
        </mxCell>
        <mxCell id="L4hd8jyMJO1TPTBA7iKi-9" value="C4" style="ellipse;whiteSpace=wrap;html=1;aspect=fixed;strokeWidth=2;sketch=1;" vertex="1" parent="1">
          <mxGeometry x="264" y="280" width="40" height="40" as="geometry" />
        </mxCell>
        <mxCell id="L4hd8jyMJO1TPTBA7iKi-15" value="" style="edgeStyle=orthogonalEdgeStyle;curved=1;rounded=0;orthogonalLoop=1;jettySize=auto;html=1;strokeWidth=2;sketch=1;" edge="1" parent="1" source="L4hd8jyMJO1TPTBA7iKi-11" target="L4hd8jyMJO1TPTBA7iKi-14">
          <mxGeometry relative="1" as="geometry" />
        </mxCell>
        <mxCell id="L4hd8jyMJO1TPTBA7iKi-11" value="C5" style="ellipse;whiteSpace=wrap;html=1;aspect=fixed;strokeWidth=2;sketch=1;" vertex="1" parent="1">
          <mxGeometry x="184" y="400" width="40" height="40" as="geometry" />
        </mxCell>
        <mxCell id="L4hd8jyMJO1TPTBA7iKi-14" value="C6" style="ellipse;whiteSpace=wrap;html=1;aspect=fixed;strokeWidth=2;sketch=1;" vertex="1" parent="1">
          <mxGeometry x="184" y="520" width="40" height="40" as="geometry" />
        </mxCell>
        <mxCell id="L4hd8jyMJO1TPTBA7iKi-16" value="C1" style="ellipse;whiteSpace=wrap;html=1;aspect=fixed;strokeWidth=2;sketch=1;shadow=0;" vertex="1" parent="1">
          <mxGeometry x="184" y="40" width="40" height="40" as="geometry" />
        </mxCell>
        <mxCell id="L4hd8jyMJO1TPTBA7iKi-23" value="HEAD" style="text;html=1;strokeColor=none;fillColor=none;align=center;verticalAlign=middle;whiteSpace=wrap;rounded=0;" vertex="1" parent="1">
          <mxGeometry x="224" y="525" width="60" height="30" as="geometry" />
        </mxCell>
        <mxCell id="L4hd8jyMJO1TPTBA7iKi-24" value="HEAD ~1" style="text;html=1;strokeColor=none;fillColor=none;align=center;verticalAlign=middle;whiteSpace=wrap;rounded=0;" vertex="1" parent="1">
          <mxGeometry x="224" y="405" width="60" height="30" as="geometry" />
        </mxCell>
        <mxCell id="L4hd8jyMJO1TPTBA7iKi-25" value="HEAD ~1 ^1" style="text;html=1;strokeColor=none;fillColor=none;align=center;verticalAlign=middle;whiteSpace=wrap;rounded=0;" vertex="1" parent="1">
          <mxGeometry x="10" y="285" width="90" height="30" as="geometry" />
        </mxCell>
        <mxCell id="L4hd8jyMJO1TPTBA7iKi-26" value="HEAD ~1 ^2" style="text;html=1;strokeColor=none;fillColor=none;align=center;verticalAlign=middle;whiteSpace=wrap;rounded=0;" vertex="1" parent="1">
          <mxGeometry x="306" y="285" width="74" height="30" as="geometry" />
        </mxCell>
        <mxCell id="L4hd8jyMJO1TPTBA7iKi-27" value="HEAD ~1 ^1 ~1" style="text;html=1;strokeColor=none;fillColor=none;align=center;verticalAlign=middle;whiteSpace=wrap;rounded=0;" vertex="1" parent="1">
          <mxGeometry x="70" y="165" width="104" height="30" as="geometry" />
        </mxCell>
        <mxCell id="L4hd8jyMJO1TPTBA7iKi-28" value="HEAD ~1 ^2 ~1" style="text;html=1;strokeColor=none;fillColor=none;align=center;verticalAlign=middle;whiteSpace=wrap;rounded=0;" vertex="1" parent="1">
          <mxGeometry x="230" y="165" width="90" height="30" as="geometry" />
        </mxCell>
        <mxCell id="L4hd8jyMJO1TPTBA7iKi-29" value="HEAD ~1 ^1 ~2" style="text;html=1;strokeColor=none;fillColor=none;align=center;verticalAlign=middle;whiteSpace=wrap;rounded=0;" vertex="1" parent="1">
          <mxGeometry x="80" y="45" width="100" height="30" as="geometry" />
        </mxCell>
        <mxCell id="L4hd8jyMJO1TPTBA7iKi-30" value="HEAD ~1 ^2 ~2" style="text;html=1;strokeColor=none;fillColor=none;align=center;verticalAlign=middle;whiteSpace=wrap;rounded=0;" vertex="1" parent="1">
          <mxGeometry x="228" y="45" width="90" height="30" as="geometry" />
        </mxCell>
        <mxCell id="L4hd8jyMJO1TPTBA7iKi-40" style="edgeStyle=orthogonalEdgeStyle;curved=1;rounded=1;sketch=0;orthogonalLoop=1;jettySize=auto;html=1;entryX=0.5;entryY=0;entryDx=0;entryDy=0;" edge="1" parent="1" source="L4hd8jyMJO1TPTBA7iKi-38" target="L4hd8jyMJO1TPTBA7iKi-11">
          <mxGeometry relative="1" as="geometry">
            <Array as="points">
              <mxPoint x="420" y="360" />
              <mxPoint x="204" y="360" />
            </Array>
          </mxGeometry>
        </mxCell>
        <mxCell id="L4hd8jyMJO1TPTBA7iKi-38" value="..." style="ellipse;whiteSpace=wrap;html=1;aspect=fixed;strokeWidth=2;sketch=1;" vertex="1" parent="1">
          <mxGeometry x="400" y="280" width="40" height="40" as="geometry" />
        </mxCell>
        <mxCell id="L4hd8jyMJO1TPTBA7iKi-39" value="HEAD ~1 ^n" style="text;html=1;strokeColor=none;fillColor=none;align=center;verticalAlign=middle;whiteSpace=wrap;rounded=0;" vertex="1" parent="1">
          <mxGeometry x="450" y="285" width="70" height="30" as="geometry" />
        </mxCell>
      </root>
    </mxGraphModel>
  </diagram>
</mxfile>
